<?xml version="1.0"?>
<svg xmlns="http://www.w3.org/2000/svg" xmlns:xlink="http://www.w3.org/1999/xlink" version="1.1" id="Layer_1" x="0px" y="0px" viewBox="0 0 498.4 498.4" style="enable-background:new 0 0 498.4 498.4;" xml:space="preserve" width="512px" height="512px" class=""><g><g><polygon style="fill:#EFB143;" points="280.8,300.8 248.8,498.4 216.8,300.8 248.8,268 " data-original="#EFB143" class=""/><polyline style="fill:#E28413;" points="248.8,268 280.8,300.8 248.8,498.4 " data-original="#E28413" class=""/><polygon style="fill:#17B377" points="339.2,200 158.4,200 175.2,32 322.4,32 " data-original="#17B377" class="" data-old_color="#17b377"/><polygon style="fill:#14915E" points="312,304 185.6,304 174.4,232 323.2,232 " data-original="#14915E" class="" data-old_color="#0D6C41"/><polyline style="fill:#0D6C41" points="176.8,232 323.2,232 312,304 " data-original="#0D6C41" class="active-path" data-old_color="#0D693F"/><polyline style="fill:#14915E" points="176.8,32 322.4,32 340,201.6 " data-original="#14915E" class="" data-old_color="#0D6C41"/><path style="fill:#17B377" d="M355.2,18.4c0,12.8-8.8,21.6-20,21.6H162.4c-11.2,0-20-9.6-20-22.4l0,0c0-12.8,8.8-17.6,20-17.6h172  C346.4,0,355.2,6.4,355.2,18.4L355.2,18.4z" data-original="#17B377" class="" data-old_color="#17b377"/><path style="fill:#0D6C41" d="M355.2,18.4L355.2,18.4c0,12.8-8.8,21.6-20,21.6H162.4c-11.2,0-20-9.6-20-22.4l0,0" data-original="#0D6C41" class="active-path" data-old_color="#14915E"/><path style="fill:#17B377" d="M383.2,216c0,12.8-8.8,24-20,24h-228c-11.2,0-20-11.2-20-24l0,0c0-12.8,8.8-24,20-24h227.2  C373.6,192,383.2,203.2,383.2,216L383.2,216z" data-original="#17B377" class="" data-old_color="#17b377"/><path style="fill:#0D6C41" d="M383.2,215.2L383.2,215.2c0,12.8-8.8,24.8-20,24.8h-228c-11.2,0-20-11.2-20-24l0,0" data-original="#0D6C41" class="active-path" data-old_color="#14915E"/><rect x="226.097" y="95.8" transform="matrix(-0.7071 0.7071 -0.7071 -0.7071 508.756 26.466)" style="fill:#EFB143;" width="45.6" height="45.6" data-original="#EFB143" class=""/><polygon style="fill:#E28413;" points="280.8,119.2 248.8,151.2 255.2,119.2 248.8,87.2 " data-original="#E28413" class=""/></g></g> </svg>
