<?xml version="1.0" encoding="iso-8859-1"?>
<!-- Generator: Adobe Illustrator 19.0.0, SVG Export Plug-In . SVG Version: 6.00 Build 0)  -->
<svg version="1.1" id="Capa_1" xmlns="http://www.w3.org/2000/svg" xmlns:xlink="http://www.w3.org/1999/xlink" x="0px" y="0px"
	 viewBox="0 0 512 512" style="enable-background:new 0 0 512 512;" xml:space="preserve">
<path style="fill:#FDBC4B;" d="M152.048,393.485h207.888c57.344-35.136,95.808-98.208,95.808-170.24
	c0-110.144-89.616-199.744-199.744-199.744s-199.744,89.6-199.744,199.744C56.256,295.293,94.72,358.349,152.048,393.485z"/>
<path style="fill:#FFE28F;" d="M256,379.853c-86.352,0-156.608-70.256-156.608-156.608S169.648,66.637,256,66.637
	s156.608,70.256,156.608,156.608S342.352,379.853,256,379.853z"/>
<path style="opacity:0.3;fill:#FFFFFF;enable-background:new    ;" d="M321.168,159.629H202.496
	c-10.864,0-18.688-8.912-18.688-19.776c0.016,0-0.016-0.432,0-0.432c0-10.656,7.824-19.776,18.688-19.776h78.032
	c11.952,0,22.608-8.912,23.264-20.864c0.656-13.04-9.568-23.472-22.176-23.472h-76.384
	C143.808,96.493,99.504,154.717,99.504,223.245c0,71.104,47.664,131.168,112.672,150.224c2.512-0.88,5.168-1.472,7.92-1.472h57.36
	c11.952-0.224,21.52-10,21.52-22.176s-10-22.176-22.176-22.176h-78.656c-10.432,0-18.912-8.48-18.688-18.688
	c0-13.952,8.064-20.432,17.6-20.432h95.856c12.176,0,22.816-8.912,23.696-20.864c0.432-12.832-9.568-23.472-22.384-23.472h-88.688
	c-9.632,0-18.48-6.768-18.48-20.208c-0.224-10.864,8.688-19.792,19.568-19.792h113.248c12.176,0,22.816-8.912,23.696-21.088
	C343.984,170.285,333.984,159.629,321.168,159.629z"/>
<polygon style="fill:#FFCC5B;" points="256,91.773 286.736,186.349 386.192,186.349 305.728,244.813 336.464,339.405 256,280.941 
	175.536,339.405 206.272,244.813 125.808,186.349 225.264,186.349 "/>
<g>
	<polygon style="fill:#FDBC4B;" points="256,91.773 256,226.781 286.736,186.349 	"/>
	<polygon style="fill:#FDBC4B;" points="256,226.781 386.192,186.349 305.728,244.813 	"/>
	<polygon style="fill:#FDBC4B;" points="256,226.781 336.464,339.405 256,280.941 	"/>
	<polygon style="fill:#FDBC4B;" points="256,226.781 206.272,244.813 175.536,339.405 	"/>
	<polygon style="fill:#FDBC4B;" points="125.808,186.349 225.264,186.349 256,226.781 	"/>
</g>
<g>
	<path style="fill:#E95454;" d="M512,452.573c-64.896-47.328-129.808-40.656-194.704-21.072c0-27.36,0-54.72,0-82.08
		c64.896-19.6,129.808-26.256,194.704,21.072c-14.848,2.864-29.68,8.544-44.528,16.56C482.32,406.381,497.152,428.061,512,452.573z"
		/>
	<path style="fill:#E95454;" d="M0,452.573c64.896,47.328,129.808,40.656,194.704,21.072c0-27.36,0-54.72,0-82.08
		C129.808,411.149,64.896,417.805,0,370.477c14.848,24.496,29.68,46.176,44.528,65.536C29.68,444.029,14.848,449.709,0,452.573z"/>
</g>
<path style="fill:#ED6362;" d="M403.824,389.565c-98.56-0.016-197.104,71.872-295.664,71.856c0-27.36,0-54.72,0-82.08
	c98.56,0.016,197.104-71.872,295.664-71.856C403.824,334.829,403.824,362.205,403.824,389.565z"/>
<g>
	<path style="fill:#CD494C;" d="M317.296,431.501c28.848-17.728,57.696-32.912,86.528-41.936c-28.848,0-57.696,6.16-86.528,14.864
		C317.296,413.437,317.296,422.477,317.296,431.501z"/>
	<path style="fill:#CD494C;" d="M194.704,473.645c-28.848-0.32-57.696-3.2-86.544-12.224c28.848,0,57.696-6.144,86.544-14.864
		C194.704,455.581,194.704,464.605,194.704,473.645z"/>
</g>
<g>
</g>
<g>
</g>
<g>
</g>
<g>
</g>
<g>
</g>
<g>
</g>
<g>
</g>
<g>
</g>
<g>
</g>
<g>
</g>
<g>
</g>
<g>
</g>
<g>
</g>
<g>
</g>
<g>
</g>
</svg>
