<?xml version="1.0" encoding="iso-8859-1"?>
<!-- Generator: Adobe Illustrator 19.0.0, SVG Export Plug-In . SVG Version: 6.00 Build 0)  -->
<svg version="1.1" id="Capa_1" xmlns="http://www.w3.org/2000/svg" xmlns:xlink="http://www.w3.org/1999/xlink" x="0px" y="0px"
	 viewBox="0 0 504.16 504.16" style="enable-background:new 0 0 504.16 504.16;" xml:space="preserve">
<polygon style="fill:#ED6362;" points="89.936,112.12 252.08,18.488 414.224,112.12 414.224,387.352 252.08,480.968 89.936,387.352 
	"/>
<polygon style="fill:#E95454;" points="121.936,368.872 121.936,130.584 252.08,55.448 382.224,130.584 382.224,368.872 
	252.08,444.008 "/>
<path style="fill:#DC4E4F;" d="M214.752,101.976c-0.56,11.024,8.224,20.176,19.056,20.176h67.616
	c11.024,0,19.808,9.152,19.248,20.176c-0.56,10.272-9.904,18.128-20.176,18.128h-63.888c-10.272,0.192-18.496,8.592-18.496,19.056
	s8.592,19.056,19.056,19.056h82.192c8.96,0,16.256,7.28,16.064,16.064v1.488c0.56,8.592-6.352,16.064-15.136,16.064H200.544
	c-10.464,0-19.616,7.664-20.368,17.936c-0.368,11.024,8.224,20.176,19.248,20.176h113.584c8.784,0,16.064,7.28,16.064,16.064
	l-0.192,1.12v0.192c0.192,9.344-7.472,17.008-16.816,17.008h-78.64c-10.464,0-19.616,7.664-20.368,18.128
	c-0.368,11.024,8.224,20.176,19.248,20.176h83.312c9.344,0,16.064,7.664,16.064,17.008c0,0,0,0,0,0.192s0,0.192,0,0.192
	c0,9.152-6.72,16.992-16.064,16.992H248.56c-10.272,0-19.424,7.664-19.984,17.936c-0.56,11.216,8.224,20.176,19.056,20.176H301.6
	l80.64-46.56V130.584L301.616,84.04h-66.688C224.464,84.04,215.312,91.704,214.752,101.976z"/>
<g>
	<path style="fill:#FFFFFF;" d="M189.152,286.872c0.352-2.64,1.984-4.912,2.768-7.392c0.752-2.48,0.816-5.104,0.784-7.76
		c-0.096-2.672-0.272-5.344-1.2-8.304c-0.272-0.096-0.544-0.192-0.832-0.288c-2.24,1.888-3.552,4.112-4.608,6.48
		c-0.992,2.384-1.712,4.896-1.536,7.712c0.208,2.832,1.456,5.936,1.632,8.736c0.032,0.368-0.064,0.704-0.064,1.056
		c-5.744-7.008-10.656-14.448-14.736-22.192c0.112-1.568,0.368-3.04,0.976-4.352c0.992-2.288,3.088-3.984,4.432-6.048
		c1.312-2.08,1.968-4.432,2.528-6.864c0.512-2.448,0.912-4.928,0.656-7.84c-0.24-0.144-0.496-0.288-0.736-0.432
		c-2.56,1.248-4.304,3.008-5.856,4.928c-1.472,1.968-2.736,4.08-3.216,6.672c-0.448,2.608,0,5.68-0.496,8.24
		c-0.08,0.496-0.32,0.912-0.464,1.392c-3.696-7.744-6.576-15.744-8.608-23.92c0.464-1.76,1.088-3.408,2.144-4.704
		c1.44-1.856,3.824-2.944,5.536-4.528c1.696-1.6,2.816-3.648,3.84-5.76c0.992-2.16,1.872-4.368,2.192-7.168
		c-0.208-0.192-0.416-0.384-0.624-0.576c-2.672,0.592-4.704,1.824-6.56,3.28c-1.808,1.472-3.456,3.168-4.448,5.44
		c-0.976,2.304-1.184,5.232-2.224,7.456c-0.272,0.592-0.656,1.056-1.008,1.584c-1.68-8.096-2.544-16.304-2.592-24.544
		c0.896-1.952,1.968-3.712,3.52-4.88c1.744-1.392,4.208-1.84,6.144-2.928c1.92-1.104,3.36-2.768,4.752-4.544
		c1.36-1.824,2.608-3.728,3.456-6.32c-0.16-0.224-0.304-0.464-0.464-0.688c-2.624-0.064-4.768,0.672-6.8,1.616
		c-1.984,0.992-3.856,2.208-5.248,4.128c-1.376,1.952-2.176,4.64-3.6,6.48c-0.48,0.64-1.072,1.12-1.664,1.632
		c0.304-8.048,1.376-16.08,3.248-24.016c0.08-0.128,0.176-0.24,0.256-0.368c1.392-1.952,2.928-3.664,4.848-4.528
		c1.888-0.912,4.272-0.752,6.272-1.344c2-0.624,3.68-1.888,5.312-3.28c1.616-1.456,3.168-3.024,4.496-5.376
		c-0.096-0.256-0.192-0.528-0.288-0.784c-2.416-0.64-4.528-0.416-6.592,0.032c-2.048,0.512-4.016,1.248-5.696,2.784
		c-1.68,1.552-2.976,3.984-4.672,5.376c-0.736,0.64-1.552,1.072-2.384,1.472c2.256-7.872,5.312-15.616,9.168-23.12
		c0.08,0.08,0.144,0.176,0.224,0.272c0.336-0.304,0.656-0.624,0.992-0.928c1.696-1.568,3.488-2.88,5.424-3.28
		c1.92-0.448,4.048,0.24,6,0.112c1.952-0.16,3.76-1.024,5.568-2.048c1.808-1.088,3.584-2.304,5.328-4.368
		c-0.016-0.288-0.048-0.56-0.064-0.848c-2.032-1.152-4-1.376-5.984-1.392c-1.968,0.048-3.936,0.352-5.824,1.472
		c-1.888,1.168-3.616,3.232-5.488,4.224c-0.912,0.512-1.856,0.832-2.832,1.008c0.032-0.176,0.032-0.336,0.064-0.512
		c6.24-10.672,14.16-20.784,23.776-29.984c-9.12,8.144-16.88,17.104-23.28,26.672c0.016-0.288,0.16-0.624,0.16-0.896
		c0.144-2.064,0.256-4.096,0.048-6.032c-0.656-3.776-1.776-7.44-4.816-10.512c-0.32,0.112-0.656,0.224-0.976,0.336
		c-3.232,5.232-4.064,9.808-4.08,13.984c0.128,2.032,0.64,3.904,1.312,5.696c0.544,1.84,1.552,3.472,2.768,4.976
		c0.176,0.208,0.352,0.432,0.528,0.64c-3.664,6.432-6.736,13.104-9.232,19.92c-0.016-0.064,0-0.144-0.016-0.208
		c-0.432-2.16-0.912-4.288-1.648-6.256c-1.712-3.808-3.792-7.424-7.584-10.128c-0.256,0.24-0.544,0.416-0.832,0.576
		c-1.744,6.016-1.312,10.912-0.16,15.248c0.688,2.096,1.728,3.936,2.896,5.68c1.072,1.824,2.512,3.328,4.16,4.672
		c0.048,0.032,0.096,0.08,0.144,0.112c-1.888,6.768-3.216,13.632-3.984,20.576c-1.008-2.032-2.032-4.064-3.264-5.872
		c-2.768-3.632-5.84-7.04-10.352-9.216c-0.24,0.224-0.48,0.448-0.72,0.672c-0.112,6.512,1.664,11.504,4.032,15.776
		c1.28,2.048,2.832,3.76,4.496,5.344c1.456,1.552,3.216,2.72,5.072,3.76c-0.192,6.848,0.16,13.712,1.056,20.544
		c-1.504-1.776-2.992-3.552-4.64-5.088c-3.824-3.232-7.856-6.208-12.992-7.728c-0.176,0.272-0.368,0.528-0.544,0.8
		c1.648,6.688,4.816,11.504,8.416,15.44c1.872,1.856,3.936,3.344,6.08,4.672c1.712,1.184,3.632,1.936,5.568,2.624
		c1.456,6.672,3.456,13.264,6,19.728c-1.936-1.424-3.84-2.88-5.84-4.08c-4.832-2.608-9.776-4.944-15.44-5.648
		c-0.112,0.288-0.224,0.592-0.336,0.896c3.504,6.528,8.096,10.88,12.896,14.224c2.448,1.552,5.008,2.688,7.584,3.632
		c1.872,0.784,3.84,1.136,5.808,1.472c3.088,6.224,6.704,12.288,10.848,18.144c-2.288-1.008-4.576-2.08-6.864-2.88
		c-5.76-1.744-11.536-3.248-17.616-3.008c-0.032,0.32-0.08,0.656-0.112,0.976c5.44,6,11.424,9.552,17.392,12.064
		c2.992,1.12,6,1.792,8.976,2.256c1.952,0.4,3.872,0.336,5.808,0.352c3.216,3.792,6.688,7.456,10.4,10.992
		c1.952-1.808,3.904-3.616,5.872-5.424c-4.256-3.808-8.224-7.792-11.872-11.936C189.008,289.448,188.944,288.12,189.152,286.872z"/>
	<path style="fill:#FFFFFF;" d="M348.288,254.664c-2,1.2-3.92,2.672-5.84,4.08c2.544-6.464,4.544-13.072,6-19.728
		c1.936-0.688,3.856-1.44,5.568-2.624c2.144-1.312,4.208-2.8,6.08-4.672c3.6-3.952,6.768-8.768,8.416-15.44
		c-0.176-0.272-0.368-0.544-0.544-0.8c-5.136,1.52-9.168,4.496-12.992,7.728c-1.648,1.536-3.152,3.328-4.64,5.088
		c0.912-6.832,1.264-13.696,1.072-20.544c1.856-1.04,3.616-2.208,5.072-3.76c1.664-1.584,3.216-3.296,4.496-5.344
		c2.368-4.272,4.144-9.264,4.032-15.776c-0.24-0.224-0.48-0.448-0.72-0.672c-4.512,2.176-7.568,5.584-10.352,9.216
		c-1.232,1.824-2.24,3.84-3.264,5.872c-0.768-6.928-2.096-13.808-3.984-20.576c0.048-0.032,0.096-0.08,0.144-0.112
		c1.648-1.344,3.104-2.848,4.16-4.672c1.168-1.744,2.208-3.584,2.896-5.68c1.152-4.336,1.568-9.248-0.16-15.248
		c-0.288-0.176-0.576-0.336-0.864-0.512c-3.792,2.704-5.872,6.32-7.584,10.128c-0.736,1.968-1.216,4.096-1.648,6.256
		c-0.016,0.064-0.016,0.144-0.016,0.208c-2.496-6.816-5.568-13.488-9.232-19.92c0.176-0.208,0.352-0.432,0.528-0.64
		c1.232-1.504,2.224-3.136,2.768-4.976c0.672-1.792,1.184-3.648,1.312-5.696c-0.016-4.176-0.848-8.752-4.08-13.984
		c-0.32-0.112-0.656-0.224-0.976-0.336c-3.04,3.072-4.16,6.736-4.816,10.512c-0.208,1.936-0.096,3.968,0.048,6.032
		c0,0.272,0.128,0.608,0.16,0.896c-6.4-9.568-14.16-18.544-23.28-26.672c9.632,9.2,17.552,19.296,23.776,29.984
		c0.032,0.176,0.048,0.336,0.064,0.512c-0.96-0.192-1.92-0.496-2.832-1.008c-1.856-0.992-3.6-3.056-5.488-4.224
		c-1.888-1.12-3.856-1.424-5.824-1.472c-1.984,0.016-3.952,0.24-5.984,1.392c-0.016,0.288-0.048,0.56-0.064,0.848
		c1.744,2.064,3.52,3.28,5.328,4.368c1.808,1.024,3.616,1.888,5.568,2.048c1.952,0.128,4.064-0.576,6-0.112
		c1.936,0.4,3.728,1.712,5.424,3.28c0.336,0.304,0.656,0.608,0.992,0.928c0.08-0.096,0.144-0.176,0.224-0.272
		c3.84,7.504,6.896,15.232,9.168,23.12c-0.832-0.4-1.648-0.832-2.384-1.472c-1.696-1.408-2.992-3.824-4.672-5.376
		c-1.68-1.52-3.648-2.272-5.696-2.784c-2.064-0.448-4.176-0.672-6.592-0.032c-0.096,0.256-0.192,0.528-0.288,0.784
		c1.312,2.352,2.88,3.92,4.496,5.376c1.648,1.392,3.312,2.656,5.312,3.28c2,0.608,4.384,0.432,6.272,1.344
		c1.92,0.864,3.456,2.576,4.848,4.528c0.08,0.128,0.176,0.24,0.256,0.368c1.856,7.936,2.944,15.968,3.232,24.016
		c-0.592-0.512-1.184-0.976-1.664-1.632c-1.424-1.824-2.224-4.528-3.6-6.48c-1.392-1.92-3.264-3.12-5.248-4.128
		c-2.032-0.944-4.16-1.664-6.8-1.616c-0.16,0.224-0.304,0.464-0.464,0.688c0.848,2.592,2.112,4.512,3.456,6.32
		c1.392,1.76,2.832,3.44,4.752,4.544c1.936,1.088,4.4,1.536,6.144,2.928c1.536,1.168,2.608,2.928,3.52,4.88
		c-0.048,8.24-0.928,16.464-2.592,24.544c-0.352-0.528-0.752-0.992-1.008-1.584c-1.04-2.208-1.248-5.152-2.224-7.456
		c-0.992-2.272-2.64-3.968-4.448-5.44c-1.856-1.456-3.888-2.688-6.56-3.28c-0.208,0.192-0.416,0.384-0.608,0.576
		c0.32,2.784,1.216,5.008,2.192,7.168c1.04,2.112,2.144,4.144,3.84,5.76c1.712,1.584,4.096,2.672,5.536,4.528
		c1.056,1.296,1.68,2.944,2.144,4.704c-2.048,8.176-4.912,16.192-8.608,23.92c-0.128-0.464-0.368-0.896-0.464-1.392
		c-0.496-2.544-0.048-5.632-0.496-8.24c-0.48-2.592-1.744-4.704-3.216-6.672c-1.536-1.936-3.296-3.68-5.84-4.928
		c-0.24,0.144-0.496,0.288-0.736,0.432c-0.256,2.912,0.144,5.392,0.656,7.84c0.56,2.416,1.216,4.784,2.528,6.864
		c1.328,2.064,3.44,3.76,4.432,6.048c0.608,1.312,0.864,2.784,0.976,4.352c-4.064,7.744-8.976,15.184-14.72,22.192
		c0-0.352-0.08-0.704-0.064-1.056c0.176-2.8,1.424-5.904,1.632-8.736c0.176-2.816-0.544-5.328-1.536-7.712
		c-1.056-2.368-2.368-4.608-4.608-6.48c-0.272,0.096-0.544,0.192-0.832,0.288c-0.928,2.96-1.104,5.632-1.2,8.304
		c-0.032,2.656,0.016,5.28,0.784,7.76c0.784,2.464,2.416,4.752,2.768,7.392c0.208,1.248,0.144,2.576-0.048,3.92
		c-3.648,4.144-7.616,8.144-11.872,11.936c1.952,1.808,3.92,3.616,5.872,5.424c3.712-3.536,7.168-7.216,10.4-10.992
		c1.92-0.016,3.84,0.048,5.808-0.352c2.976-0.464,5.968-1.136,8.976-2.256c5.968-2.512,11.968-6.064,17.392-12.064
		c-0.032-0.32-0.064-0.656-0.112-0.976c-6.08-0.24-11.856,1.264-17.616,3.008c-2.288,0.8-4.576,1.872-6.864,2.88
		c4.144-5.856,7.76-11.92,10.848-18.144c1.968-0.336,3.92-0.688,5.808-1.472c2.592-0.944,5.136-2.08,7.584-3.632
		c4.816-3.344,9.392-7.696,12.896-14.224c-0.112-0.304-0.224-0.608-0.336-0.912C358.064,249.72,353.12,252.056,348.288,254.664z"/>
	<polygon style="fill:#FFFFFF;" points="252.08,142.04 269.008,194.136 323.792,194.136 279.472,226.344 296.4,278.44 
		252.08,246.232 207.76,278.44 224.688,226.344 180.368,194.136 235.152,194.136 	"/>
</g>
<g>
	<polygon style="fill:#E5E5E5;" points="252.08,142.04 252.08,216.408 269.008,194.136 	"/>
	<polygon style="fill:#E5E5E5;" points="252.08,216.408 323.792,194.136 279.472,226.344 	"/>
	<polygon style="fill:#E5E5E5;" points="252.08,216.408 296.4,278.44 252.08,246.232 	"/>
	<polygon style="fill:#E5E5E5;" points="252.08,216.408 224.688,226.344 207.76,278.44 	"/>
	<polygon style="fill:#E5E5E5;" points="180.368,194.136 235.152,194.136 252.08,216.408 	"/>
</g>
<path style="fill:#FDBC4B;" d="M27.792,485.672c34.736-16.352,70.608-28.72,107.056-37.136c-4.848-24.816-9.68-49.648-14.528-74.464
	C79.36,383.528,39.04,397.432,0,415.816c16.8,5.92,33.04,12.592,48.704,19.936C40.944,452.28,33.984,468.936,27.792,485.672z"/>
<path style="fill:#EC9922;" d="M128.144,414.2c2.24,11.44,4.464,22.896,6.704,34.336c-17.04-8.032-34.816-15.216-53.28-21.424
	C96.96,422.12,112.496,417.816,128.144,414.2z"/>
<path style="fill:#FDBC4B;" d="M476.368,485.672c-34.736-16.352-70.608-28.72-107.056-37.136
	c4.848-24.816,9.68-49.648,14.528-74.464c40.96,9.456,81.28,23.36,120.32,41.744c-16.8,5.92-33.04,12.592-48.704,19.936
	C463.216,452.28,470.176,468.936,476.368,485.672z"/>
<path style="fill:#EC9922;" d="M376.016,414.2c-2.24,11.44-4.464,22.896-6.704,34.336c17.04-8.032,34.816-15.216,53.28-21.424
	C407.2,422.12,391.664,417.816,376.016,414.2z"/>
<path style="fill:#FFCC5B;" d="M422.608,427.112c-111.232-36.064-229.808-36.064-341.04,0
	c-8.624-31.488-17.264-62.976-25.888-94.464c128.128-41.536,264.688-41.536,392.816,0
	C439.856,364.136,431.232,395.624,422.608,427.112z"/>
<g>
	<path style="fill:#FFFFFF;" d="M149.744,327.304c4.08,7.568,8.048,15.152,11.936,22.8c9.184-1.408,18.384-2.592,27.6-3.568
		c-7.008,5.792-13.856,11.728-20.512,17.76c3.76,7.68,7.424,15.392,10.992,23.136c-7.568-4.096-15.296-8.032-23.168-11.808
		c-6.448,6.176-12.736,12.464-18.848,18.848c1.264-8.56,2.624-17.104,4.096-25.664c-8.048-3.568-16.224-6.976-24.544-10.208
		c9.104-2.096,18.224-3.984,27.376-5.648C146.272,344.392,147.952,335.848,149.744,327.304z"/>
	<path style="fill:#FFFFFF;" d="M252.08,318.776c2.96,8.144,5.808,16.32,8.576,24.496c9.248,0.128,18.496,0.48,27.744,1.04
		c-7.728,4.576-15.312,9.296-22.736,14.16c2.64,8.208,5.184,16.432,7.616,24.688c-6.896-5.296-13.968-10.48-21.184-15.504
		c-7.232,5.04-14.288,10.208-21.184,15.504c2.432-8.24,4.976-16.464,7.616-24.688c-7.424-4.864-15.008-9.584-22.736-14.16
		c9.248-0.56,18.48-0.912,27.744-1.04C246.272,335.096,249.12,326.936,252.08,318.776z"/>
	<path style="fill:#FFFFFF;" d="M354.416,327.304c1.792,8.544,3.488,17.088,5.072,25.648c9.152,1.664,18.288,3.552,27.376,5.648
		c-8.32,3.232-16.496,6.64-24.544,10.208c1.472,8.56,2.832,17.104,4.096,25.664c-6.112-6.384-12.384-12.672-18.848-18.848
		c-7.872,3.776-15.584,7.712-23.152,11.808c3.568-7.744,7.232-15.456,10.992-23.136c-6.672-6.048-13.504-11.968-20.512-17.76
		c9.216,0.976,18.416,2.16,27.6,3.568C346.368,342.472,350.336,334.872,354.416,327.304z"/>
</g>
<g>
</g>
<g>
</g>
<g>
</g>
<g>
</g>
<g>
</g>
<g>
</g>
<g>
</g>
<g>
</g>
<g>
</g>
<g>
</g>
<g>
</g>
<g>
</g>
<g>
</g>
<g>
</g>
<g>
</g>
</svg>
