<?xml version="1.0" encoding="iso-8859-1"?>
<!-- Generator: Adobe Illustrator 19.0.0, SVG Export Plug-In . SVG Version: 6.00 Build 0)  -->
<svg version="1.1" id="Capa_1" xmlns="http://www.w3.org/2000/svg" xmlns:xlink="http://www.w3.org/1999/xlink" x="0px" y="0px"
	 viewBox="0 0 513.248 513.248" style="enable-background:new 0 0 513.248 513.248;" xml:space="preserve">
<polygon style="fill:#FFE28F;" points="120.416,90.72 256.256,116.24 392.832,90.72 413.856,235.568 476.896,351.888 
	347.808,414.176 256.992,513.248 163.184,414.928 36.352,352.64 94.896,236.32 "/>
<g>
	<polygon style="fill:#FFDB70;" points="120.416,90.72 256.624,291.952 256.256,116.24 	"/>
	<polygon style="fill:#FFDB70;" points="256.624,291.952 392.832,90.72 413.856,235.568 	"/>
	<polygon style="fill:#FFDB70;" points="476.896,351.888 347.808,414.176 256.624,291.952 	"/>
	<polygon style="fill:#FFDB70;" points="256.992,513.248 163.184,414.928 256.624,291.952 	"/>
	<polygon style="fill:#FFDB70;" points="36.352,352.64 94.896,236.32 256.624,291.952 	"/>
</g>
<polygon style="fill:#E95454;" points="256.624,0 315.28,180.528 505.104,180.528 351.536,292.096 410.192,472.624 256.624,361.056 
	103.056,472.624 161.712,292.096 8.144,180.528 197.968,180.528 "/>
<g>
	<polygon style="fill:#ED6362;" points="256.624,0 256.624,257.68 315.28,180.528 	"/>
	<polygon style="fill:#ED6362;" points="256.624,257.68 505.104,180.528 351.536,292.096 	"/>
	<polygon style="fill:#ED6362;" points="256.624,257.68 410.192,472.624 256.624,361.056 	"/>
	<polygon style="fill:#ED6362;" points="256.624,257.68 161.712,292.096 103.056,472.624 	"/>
	<polygon style="fill:#ED6362;" points="8.144,180.528 197.968,180.528 256.624,257.68 	"/>
</g>
<g>
</g>
<g>
</g>
<g>
</g>
<g>
</g>
<g>
</g>
<g>
</g>
<g>
</g>
<g>
</g>
<g>
</g>
<g>
</g>
<g>
</g>
<g>
</g>
<g>
</g>
<g>
</g>
<g>
</g>
</svg>
